<svg width="858" height="586" viewBox="0 0 858 586" fill="none" xmlns="http://www.w3.org/2000/svg">
    <rect width="858" height="586" fill="none" />
    <rect x="29" y="19" width="755" height="500" rx="10" fill="#6701CE" />
    <rect x="49" y="39" width="755" height="500" rx="10" fill="#015FCE" />
    <rect x="69" y="59" width="755" height="500" rx="10" fill="#3601CE" />
    <path d="M69 69C69 63.4771 73.4772 59 79 59H219V559H79C73.4772 559 69 554.523 69 549V69Z" fill="#019DCE" />
    <path d="M219 83H824V549C824 554.523 819.523 559 814 559H219V83Z" fill="#01CEC2" />
    <rect x="229" y="89" width="565" height="420" rx="10" fill="#0184CE" />
    <rect x="239" y="109" width="565" height="420" rx="10" fill="#002094" />
    <rect x="249" y="129" width="565" height="420" rx="10" fill="#5C0094" />
    <path d="M36.1211 33.0801H40.1641V34H34.9902V25.4688H36.1211V33.0801ZM45.1914 34C45.1289 33.875 45.0781 33.6523 45.0391 33.332C44.5352 33.8555 43.9336 34.1172 43.2344 34.1172C42.6094 34.1172 42.0957 33.9414 41.6934 33.5898C41.2949 33.2344 41.0957 32.7852 41.0957 32.2422C41.0957 31.582 41.3457 31.0703 41.8457 30.707C42.3496 30.3398 43.0566 30.1562 43.9668 30.1562H45.0215V29.6582C45.0215 29.2793 44.9082 28.9785 44.6816 28.7559C44.4551 28.5293 44.1211 28.416 43.6797 28.416C43.293 28.416 42.9688 28.5137 42.707 28.709C42.4453 28.9043 42.3145 29.1406 42.3145 29.418H41.2246C41.2246 29.1016 41.3359 28.7969 41.5586 28.5039C41.7852 28.207 42.0898 27.9727 42.4727 27.8008C42.8594 27.6289 43.2832 27.543 43.7441 27.543C44.4746 27.543 45.0469 27.7266 45.4609 28.0938C45.875 28.457 46.0898 28.959 46.1055 29.5996V32.5176C46.1055 33.0996 46.1797 33.5625 46.3281 33.9062V34H45.1914ZM43.3926 33.1738C43.7324 33.1738 44.0547 33.0859 44.3594 32.9102C44.6641 32.7344 44.8848 32.5059 45.0215 32.2246V30.9238H44.1719C42.8438 30.9238 42.1797 31.3125 42.1797 32.0898C42.1797 32.4297 42.293 32.6953 42.5195 32.8867C42.7461 33.0781 43.0371 33.1738 43.3926 33.1738ZM48.8301 27.6602L48.8652 28.457C49.3496 27.8477 49.9824 27.543 50.7637 27.543C52.1035 27.543 52.7793 28.2988 52.791 29.8105V34H51.707V29.8047C51.7031 29.3477 51.5977 29.0098 51.3906 28.791C51.1875 28.5723 50.8691 28.4629 50.4355 28.4629C50.084 28.4629 49.7754 28.5566 49.5098 28.7441C49.2441 28.9316 49.0371 29.1777 48.8887 29.4824V34H47.8047V27.6602H48.8301ZM54.1621 30.7773C54.1621 29.8047 54.3926 29.0234 54.8535 28.4336C55.3145 27.8398 55.918 27.543 56.6641 27.543C57.4062 27.543 57.9941 27.7969 58.4277 28.3047V25H59.5117V34H58.5156L58.4629 33.3203C58.0293 33.8516 57.4258 34.1172 56.6523 34.1172C55.918 34.1172 55.3184 33.8164 54.8535 33.2148C54.3926 32.6133 54.1621 31.8281 54.1621 30.8594V30.7773ZM55.2461 30.9004C55.2461 31.6191 55.3945 32.1816 55.6914 32.5879C55.9883 32.9941 56.3984 33.1973 56.9219 33.1973C57.6094 33.1973 58.1113 32.8887 58.4277 32.2715V29.3594C58.1035 28.7617 57.6055 28.4629 56.9336 28.4629C56.4023 28.4629 55.9883 28.668 55.6914 29.0781C55.3945 29.4883 55.2461 30.0957 55.2461 30.9004ZM62.377 34H61.293V27.6602H62.377V34ZM61.2051 25.9785C61.2051 25.8027 61.2578 25.6543 61.3633 25.5332C61.4727 25.4121 61.6328 25.3516 61.8438 25.3516C62.0547 25.3516 62.2148 25.4121 62.3242 25.5332C62.4336 25.6543 62.4883 25.8027 62.4883 25.9785C62.4883 26.1543 62.4336 26.3008 62.3242 26.418C62.2148 26.5352 62.0547 26.5938 61.8438 26.5938C61.6328 26.5938 61.4727 26.5352 61.3633 26.418C61.2578 26.3008 61.2051 26.1543 61.2051 25.9785ZM65.1426 27.6602L65.1777 28.457C65.6621 27.8477 66.2949 27.543 67.0762 27.543C68.416 27.543 69.0918 28.2988 69.1035 29.8105V34H68.0195V29.8047C68.0156 29.3477 67.9102 29.0098 67.7031 28.791C67.5 28.5723 67.1816 28.4629 66.748 28.4629C66.3965 28.4629 66.0879 28.5566 65.8223 28.7441C65.5566 28.9316 65.3496 29.1777 65.2012 29.4824V34H64.1172V27.6602H65.1426ZM70.4805 30.7773C70.4805 29.7891 70.709 29.0039 71.166 28.4219C71.623 27.8359 72.2285 27.543 72.9824 27.543C73.7559 27.543 74.3594 27.8164 74.793 28.3633L74.8457 27.6602H75.8359V33.8477C75.8359 34.668 75.5918 35.3145 75.1035 35.7871C74.6191 36.2598 73.9668 36.4961 73.1465 36.4961C72.6895 36.4961 72.2422 36.3984 71.8047 36.2031C71.3672 36.0078 71.0332 35.7402 70.8027 35.4004L71.3652 34.75C71.8301 35.3242 72.3984 35.6113 73.0703 35.6113C73.5977 35.6113 74.0078 35.4629 74.3008 35.166C74.5977 34.8691 74.7461 34.4512 74.7461 33.9121V33.3672C74.3125 33.8672 73.7207 34.1172 72.9707 34.1172C72.2285 34.1172 71.627 33.8184 71.166 33.2207C70.709 32.623 70.4805 31.8086 70.4805 30.7773ZM71.5703 30.9004C71.5703 31.6152 71.7168 32.1777 72.0098 32.5879C72.3027 32.9941 72.7129 33.1973 73.2402 33.1973C73.9238 33.1973 74.4258 32.8867 74.7461 32.2656V29.3711C74.4141 28.7656 73.916 28.4629 73.252 28.4629C72.7246 28.4629 72.3125 28.668 72.0156 29.0781C71.7188 29.4883 71.5703 30.0957 71.5703 30.9004ZM81.748 30.6602V34H80.623V25.4688H83.7695C84.7031 25.4688 85.4336 25.707 85.9609 26.1836C86.4922 26.6602 86.7578 27.291 86.7578 28.0762C86.7578 28.9043 86.498 29.543 85.9785 29.9922C85.4629 30.4375 84.7227 30.6602 83.7578 30.6602H81.748ZM81.748 29.7402H83.7695C84.3711 29.7402 84.832 29.5996 85.1523 29.3184C85.4727 29.0332 85.6328 28.623 85.6328 28.0879C85.6328 27.5801 85.4727 27.1738 85.1523 26.8691C84.832 26.5645 84.3926 26.4062 83.834 26.3945H81.748V29.7402ZM91.8672 34C91.8047 33.875 91.7539 33.6523 91.7148 33.332C91.2109 33.8555 90.6094 34.1172 89.9102 34.1172C89.2852 34.1172 88.7715 33.9414 88.3691 33.5898C87.9707 33.2344 87.7715 32.7852 87.7715 32.2422C87.7715 31.582 88.0215 31.0703 88.5215 30.707C89.0254 30.3398 89.7324 30.1562 90.6426 30.1562H91.6973V29.6582C91.6973 29.2793 91.584 28.9785 91.3574 28.7559C91.1309 28.5293 90.7969 28.416 90.3555 28.416C89.9688 28.416 89.6445 28.5137 89.3828 28.709C89.1211 28.9043 88.9902 29.1406 88.9902 29.418H87.9004C87.9004 29.1016 88.0117 28.7969 88.2344 28.5039C88.4609 28.207 88.7656 27.9727 89.1484 27.8008C89.5352 27.6289 89.959 27.543 90.4199 27.543C91.1504 27.543 91.7227 27.7266 92.1367 28.0938C92.5508 28.457 92.7656 28.959 92.7812 29.5996V32.5176C92.7812 33.0996 92.8555 33.5625 93.0039 33.9062V34H91.8672ZM90.0684 33.1738C90.4082 33.1738 90.7305 33.0859 91.0352 32.9102C91.3398 32.7344 91.5605 32.5059 91.6973 32.2246V30.9238H90.8477C89.5195 30.9238 88.8555 31.3125 88.8555 32.0898C88.8555 32.4297 88.9688 32.6953 89.1953 32.8867C89.4219 33.0781 89.7129 33.1738 90.0684 33.1738ZM94.2227 30.7773C94.2227 29.7891 94.4512 29.0039 94.9082 28.4219C95.3652 27.8359 95.9707 27.543 96.7246 27.543C97.498 27.543 98.1016 27.8164 98.5352 28.3633L98.5879 27.6602H99.5781V33.8477C99.5781 34.668 99.334 35.3145 98.8457 35.7871C98.3613 36.2598 97.709 36.4961 96.8887 36.4961C96.4316 36.4961 95.9844 36.3984 95.5469 36.2031C95.1094 36.0078 94.7754 35.7402 94.5449 35.4004L95.1074 34.75C95.5723 35.3242 96.1406 35.6113 96.8125 35.6113C97.3398 35.6113 97.75 35.4629 98.043 35.166C98.3398 34.8691 98.4883 34.4512 98.4883 33.9121V33.3672C98.0547 33.8672 97.4629 34.1172 96.7129 34.1172C95.9707 34.1172 95.3691 33.8184 94.9082 33.2207C94.4512 32.623 94.2227 31.8086 94.2227 30.7773ZM95.3125 30.9004C95.3125 31.6152 95.459 32.1777 95.752 32.5879C96.0449 32.9941 96.4551 33.1973 96.9824 33.1973C97.666 33.1973 98.168 32.8867 98.4883 32.2656V29.3711C98.1562 28.7656 97.6582 28.4629 96.9941 28.4629C96.4668 28.4629 96.0547 28.668 95.7578 29.0781C95.4609 29.4883 95.3125 30.0957 95.3125 30.9004ZM103.85 34.1172C102.99 34.1172 102.291 33.8359 101.752 33.2734C101.213 32.707 100.943 31.9512 100.943 31.0059V30.8066C100.943 30.1777 101.062 29.6172 101.301 29.125C101.543 28.6289 101.879 28.2422 102.309 27.9648C102.742 27.6836 103.211 27.543 103.715 27.543C104.539 27.543 105.18 27.8145 105.637 28.3574C106.094 28.9004 106.322 29.6777 106.322 30.6895V31.1406H102.027C102.043 31.7656 102.225 32.2715 102.572 32.6582C102.924 33.041 103.369 33.2324 103.908 33.2324C104.291 33.2324 104.615 33.1543 104.881 32.998C105.146 32.8418 105.379 32.6348 105.578 32.377L106.24 32.8926C105.709 33.709 104.912 34.1172 103.85 34.1172ZM103.715 28.4336C103.277 28.4336 102.91 28.5938 102.613 28.9141C102.316 29.2305 102.133 29.6758 102.062 30.25H105.238V30.168C105.207 29.6172 105.059 29.1914 104.793 28.8906C104.527 28.5859 104.168 28.4336 103.715 28.4336Z" fill="black" />
    <path d="M66.1211 53.0801H70.1641V54H64.9902V45.4688H66.1211V53.0801ZM70.9902 50.7715C70.9902 50.1504 71.1113 49.5918 71.3535 49.0957C71.5996 48.5996 71.9395 48.2168 72.373 47.9473C72.8105 47.6777 73.3086 47.543 73.8672 47.543C74.7305 47.543 75.4277 47.8418 75.959 48.4395C76.4941 49.0371 76.7617 49.832 76.7617 50.8242V50.9004C76.7617 51.5176 76.6426 52.0723 76.4043 52.5645C76.1699 53.0527 75.832 53.4336 75.3906 53.707C74.9531 53.9805 74.4492 54.1172 73.8789 54.1172C73.0195 54.1172 72.3223 53.8184 71.7871 53.2207C71.2559 52.623 70.9902 51.832 70.9902 50.8477V50.7715ZM72.0801 50.9004C72.0801 51.6035 72.2422 52.168 72.5664 52.5938C72.8945 53.0195 73.332 53.2324 73.8789 53.2324C74.4297 53.2324 74.8672 53.0176 75.1914 52.5879C75.5156 52.1543 75.6777 51.5488 75.6777 50.7715C75.6777 50.0762 75.5117 49.5137 75.1797 49.084C74.8516 48.6504 74.4141 48.4336 73.8672 48.4336C73.332 48.4336 72.9004 48.6465 72.5723 49.0723C72.2441 49.498 72.0801 50.1074 72.0801 50.9004ZM77.8633 50.7773C77.8633 49.7891 78.0918 49.0039 78.5488 48.4219C79.0059 47.8359 79.6113 47.543 80.3652 47.543C81.1387 47.543 81.7422 47.8164 82.1758 48.3633L82.2285 47.6602H83.2188V53.8477C83.2188 54.668 82.9746 55.3145 82.4863 55.7871C82.002 56.2598 81.3496 56.4961 80.5293 56.4961C80.0723 56.4961 79.625 56.3984 79.1875 56.2031C78.75 56.0078 78.416 55.7402 78.1855 55.4004L78.748 54.75C79.2129 55.3242 79.7812 55.6113 80.4531 55.6113C80.9805 55.6113 81.3906 55.4629 81.6836 55.166C81.9805 54.8691 82.1289 54.4512 82.1289 53.9121V53.3672C81.6953 53.8672 81.1035 54.1172 80.3535 54.1172C79.6113 54.1172 79.0098 53.8184 78.5488 53.2207C78.0918 52.623 77.8633 51.8086 77.8633 50.7773ZM78.9531 50.9004C78.9531 51.6152 79.0996 52.1777 79.3926 52.5879C79.6855 52.9941 80.0957 53.1973 80.623 53.1973C81.3066 53.1973 81.8086 52.8867 82.1289 52.2656V49.3711C81.7969 48.7656 81.2988 48.4629 80.6348 48.4629C80.1074 48.4629 79.6953 48.668 79.3984 49.0781C79.1016 49.4883 78.9531 50.0957 78.9531 50.9004ZM86.0371 54H84.9531V47.6602H86.0371V54ZM84.8652 45.9785C84.8652 45.8027 84.918 45.6543 85.0234 45.5332C85.1328 45.4121 85.293 45.3516 85.5039 45.3516C85.7148 45.3516 85.875 45.4121 85.9844 45.5332C86.0938 45.6543 86.1484 45.8027 86.1484 45.9785C86.1484 46.1543 86.0938 46.3008 85.9844 46.418C85.875 46.5352 85.7148 46.5938 85.5039 46.5938C85.293 46.5938 85.1328 46.5352 85.0234 46.418C84.918 46.3008 84.8652 46.1543 84.8652 45.9785ZM88.8027 47.6602L88.8379 48.457C89.3223 47.8477 89.9551 47.543 90.7363 47.543C92.0762 47.543 92.752 48.2988 92.7637 49.8105V54H91.6797V49.8047C91.6758 49.3477 91.5703 49.0098 91.3633 48.791C91.1602 48.5723 90.8418 48.4629 90.4082 48.4629C90.0566 48.4629 89.748 48.5566 89.4824 48.7441C89.2168 48.9316 89.0098 49.1777 88.8613 49.4824V54H87.7773V47.6602H88.8027ZM98.6699 50.6602V54H97.5449V45.4688H100.691C101.625 45.4688 102.355 45.707 102.883 46.1836C103.414 46.6602 103.68 47.291 103.68 48.0762C103.68 48.9043 103.42 49.543 102.9 49.9922C102.385 50.4375 101.645 50.6602 100.68 50.6602H98.6699ZM98.6699 49.7402H100.691C101.293 49.7402 101.754 49.5996 102.074 49.3184C102.395 49.0332 102.555 48.623 102.555 48.0879C102.555 47.5801 102.395 47.1738 102.074 46.8691C101.754 46.5645 101.314 46.4062 100.756 46.3945H98.6699V49.7402ZM108.789 54C108.727 53.875 108.676 53.6523 108.637 53.332C108.133 53.8555 107.531 54.1172 106.832 54.1172C106.207 54.1172 105.693 53.9414 105.291 53.5898C104.893 53.2344 104.693 52.7852 104.693 52.2422C104.693 51.582 104.943 51.0703 105.443 50.707C105.947 50.3398 106.654 50.1562 107.564 50.1562H108.619V49.6582C108.619 49.2793 108.506 48.9785 108.279 48.7559C108.053 48.5293 107.719 48.416 107.277 48.416C106.891 48.416 106.566 48.5137 106.305 48.709C106.043 48.9043 105.912 49.1406 105.912 49.418H104.822C104.822 49.1016 104.934 48.7969 105.156 48.5039C105.383 48.207 105.688 47.9727 106.07 47.8008C106.457 47.6289 106.881 47.543 107.342 47.543C108.072 47.543 108.645 47.7266 109.059 48.0938C109.473 48.457 109.688 48.959 109.703 49.5996V52.5176C109.703 53.0996 109.777 53.5625 109.926 53.9062V54H108.789ZM106.99 53.1738C107.33 53.1738 107.652 53.0859 107.957 52.9102C108.262 52.7344 108.482 52.5059 108.619 52.2246V50.9238H107.77C106.441 50.9238 105.777 51.3125 105.777 52.0898C105.777 52.4297 105.891 52.6953 106.117 52.8867C106.344 53.0781 106.635 53.1738 106.99 53.1738ZM111.145 50.7773C111.145 49.7891 111.373 49.0039 111.83 48.4219C112.287 47.8359 112.893 47.543 113.646 47.543C114.42 47.543 115.023 47.8164 115.457 48.3633L115.51 47.6602H116.5V53.8477C116.5 54.668 116.256 55.3145 115.768 55.7871C115.283 56.2598 114.631 56.4961 113.811 56.4961C113.354 56.4961 112.906 56.3984 112.469 56.2031C112.031 56.0078 111.697 55.7402 111.467 55.4004L112.029 54.75C112.494 55.3242 113.062 55.6113 113.734 55.6113C114.262 55.6113 114.672 55.4629 114.965 55.166C115.262 54.8691 115.41 54.4512 115.41 53.9121V53.3672C114.977 53.8672 114.385 54.1172 113.635 54.1172C112.893 54.1172 112.291 53.8184 111.83 53.2207C111.373 52.623 111.145 51.8086 111.145 50.7773ZM112.234 50.9004C112.234 51.6152 112.381 52.1777 112.674 52.5879C112.967 52.9941 113.377 53.1973 113.904 53.1973C114.588 53.1973 115.09 52.8867 115.41 52.2656V49.3711C115.078 48.7656 114.58 48.4629 113.916 48.4629C113.389 48.4629 112.977 48.668 112.68 49.0781C112.383 49.4883 112.234 50.0957 112.234 50.9004ZM120.771 54.1172C119.912 54.1172 119.213 53.8359 118.674 53.2734C118.135 52.707 117.865 51.9512 117.865 51.0059V50.8066C117.865 50.1777 117.984 49.6172 118.223 49.125C118.465 48.6289 118.801 48.2422 119.23 47.9648C119.664 47.6836 120.133 47.543 120.637 47.543C121.461 47.543 122.102 47.8145 122.559 48.3574C123.016 48.9004 123.244 49.6777 123.244 50.6895V51.1406H118.949C118.965 51.7656 119.146 52.2715 119.494 52.6582C119.846 53.041 120.291 53.2324 120.83 53.2324C121.213 53.2324 121.537 53.1543 121.803 52.998C122.068 52.8418 122.301 52.6348 122.5 52.377L123.162 52.8926C122.631 53.709 121.834 54.1172 120.771 54.1172ZM120.637 48.4336C120.199 48.4336 119.832 48.5938 119.535 48.9141C119.238 49.2305 119.055 49.6758 118.984 50.25H122.16V50.168C122.129 49.6172 121.98 49.1914 121.715 48.8906C121.449 48.5859 121.09 48.4336 120.637 48.4336Z" fill="black" />
    <path d="M94.9902 74V65.4688H97.3984C98.1406 65.4688 98.7969 65.6328 99.3672 65.9609C99.9375 66.2891 100.377 66.7559 100.686 67.3613C100.998 67.9668 101.156 68.6621 101.16 69.4473V69.9922C101.16 70.7969 101.004 71.502 100.691 72.1074C100.383 72.7129 99.9395 73.1777 99.3613 73.502C98.7871 73.8262 98.1172 73.9922 97.3516 74H94.9902ZM96.1152 66.3945V73.0801H97.2988C98.166 73.0801 98.8398 72.8105 99.3203 72.2715C99.8047 71.7324 100.047 70.9648 100.047 69.9688V69.4707C100.047 68.502 99.8184 67.75 99.3613 67.2148C98.9082 66.6758 98.2637 66.4023 97.4277 66.3945H96.1152ZM106.609 74C106.547 73.875 106.496 73.6523 106.457 73.332C105.953 73.8555 105.352 74.1172 104.652 74.1172C104.027 74.1172 103.514 73.9414 103.111 73.5898C102.713 73.2344 102.514 72.7852 102.514 72.2422C102.514 71.582 102.764 71.0703 103.264 70.707C103.768 70.3398 104.475 70.1562 105.385 70.1562H106.439V69.6582C106.439 69.2793 106.326 68.9785 106.1 68.7559C105.873 68.5293 105.539 68.416 105.098 68.416C104.711 68.416 104.387 68.5137 104.125 68.709C103.863 68.9043 103.732 69.1406 103.732 69.418H102.643C102.643 69.1016 102.754 68.7969 102.977 68.5039C103.203 68.207 103.508 67.9727 103.891 67.8008C104.277 67.6289 104.701 67.543 105.162 67.543C105.893 67.543 106.465 67.7266 106.879 68.0938C107.293 68.457 107.508 68.959 107.523 69.5996V72.5176C107.523 73.0996 107.598 73.5625 107.746 73.9062V74H106.609ZM104.811 73.1738C105.15 73.1738 105.473 73.0859 105.777 72.9102C106.082 72.7344 106.303 72.5059 106.439 72.2246V70.9238H105.59C104.262 70.9238 103.598 71.3125 103.598 72.0898C103.598 72.4297 103.711 72.6953 103.938 72.8867C104.164 73.0781 104.455 73.1738 104.811 73.1738ZM112.914 72.3184C112.914 72.0254 112.803 71.7988 112.58 71.6387C112.361 71.4746 111.977 71.334 111.426 71.2168C110.879 71.0996 110.443 70.959 110.119 70.7949C109.799 70.6309 109.561 70.4355 109.404 70.209C109.252 69.9824 109.176 69.7129 109.176 69.4004C109.176 68.8809 109.395 68.4414 109.832 68.082C110.273 67.7227 110.836 67.543 111.52 67.543C112.238 67.543 112.82 67.7285 113.266 68.0996C113.715 68.4707 113.939 68.9453 113.939 69.5234H112.85C112.85 69.2266 112.723 68.9707 112.469 68.7559C112.219 68.541 111.902 68.4336 111.52 68.4336C111.125 68.4336 110.816 68.5195 110.594 68.6914C110.371 68.8633 110.26 69.0879 110.26 69.3652C110.26 69.627 110.363 69.8242 110.57 69.957C110.777 70.0898 111.15 70.2168 111.689 70.3379C112.232 70.459 112.672 70.6035 113.008 70.7715C113.344 70.9395 113.592 71.1426 113.752 71.3809C113.916 71.6152 113.998 71.9023 113.998 72.2422C113.998 72.8086 113.771 73.2637 113.318 73.6074C112.865 73.9473 112.277 74.1172 111.555 74.1172C111.047 74.1172 110.598 74.0273 110.207 73.8477C109.816 73.668 109.51 73.418 109.287 73.0977C109.068 72.7734 108.959 72.4238 108.959 72.0488H110.043C110.062 72.4121 110.207 72.7012 110.477 72.916C110.75 73.127 111.109 73.2324 111.555 73.2324C111.965 73.2324 112.293 73.1504 112.539 72.9863C112.789 72.8184 112.914 72.5957 112.914 72.3184ZM116.494 68.4277C116.975 67.8379 117.6 67.543 118.369 67.543C119.709 67.543 120.385 68.2988 120.396 69.8105V74H119.312V69.8047C119.309 69.3477 119.203 69.0098 118.996 68.791C118.793 68.5723 118.475 68.4629 118.041 68.4629C117.689 68.4629 117.381 68.5566 117.115 68.7441C116.85 68.9316 116.643 69.1777 116.494 69.4824V74H115.41V65H116.494V68.4277ZM127.387 70.9004C127.387 71.8691 127.164 72.6484 126.719 73.2383C126.273 73.8242 125.676 74.1172 124.926 74.1172C124.125 74.1172 123.506 73.834 123.068 73.2676L123.016 74H122.02V65H123.104V68.3574C123.541 67.8145 124.145 67.543 124.914 67.543C125.684 67.543 126.287 67.834 126.725 68.416C127.166 68.998 127.387 69.7949 127.387 70.8066V70.9004ZM126.303 70.7773C126.303 70.0391 126.16 69.4688 125.875 69.0664C125.59 68.6641 125.18 68.4629 124.645 68.4629C123.93 68.4629 123.416 68.7949 123.104 69.459V72.2012C123.436 72.8652 123.953 73.1973 124.656 73.1973C125.176 73.1973 125.58 72.9961 125.869 72.5938C126.158 72.1914 126.303 71.5859 126.303 70.7773ZM128.471 70.7715C128.471 70.1504 128.592 69.5918 128.834 69.0957C129.08 68.5996 129.42 68.2168 129.854 67.9473C130.291 67.6777 130.789 67.543 131.348 67.543C132.211 67.543 132.908 67.8418 133.439 68.4395C133.975 69.0371 134.242 69.832 134.242 70.8242V70.9004C134.242 71.5176 134.123 72.0723 133.885 72.5645C133.65 73.0527 133.312 73.4336 132.871 73.707C132.434 73.9805 131.93 74.1172 131.359 74.1172C130.5 74.1172 129.803 73.8184 129.268 73.2207C128.736 72.623 128.471 71.832 128.471 70.8477V70.7715ZM129.561 70.9004C129.561 71.6035 129.723 72.168 130.047 72.5938C130.375 73.0195 130.812 73.2324 131.359 73.2324C131.91 73.2324 132.348 73.0176 132.672 72.5879C132.996 72.1543 133.158 71.5488 133.158 70.7715C133.158 70.0762 132.992 69.5137 132.66 69.084C132.332 68.6504 131.895 68.4336 131.348 68.4336C130.812 68.4336 130.381 68.6465 130.053 69.0723C129.725 69.498 129.561 70.1074 129.561 70.9004ZM139.516 74C139.453 73.875 139.402 73.6523 139.363 73.332C138.859 73.8555 138.258 74.1172 137.559 74.1172C136.934 74.1172 136.42 73.9414 136.018 73.5898C135.619 73.2344 135.42 72.7852 135.42 72.2422C135.42 71.582 135.67 71.0703 136.17 70.707C136.674 70.3398 137.381 70.1562 138.291 70.1562H139.346V69.6582C139.346 69.2793 139.232 68.9785 139.006 68.7559C138.779 68.5293 138.445 68.416 138.004 68.416C137.617 68.416 137.293 68.5137 137.031 68.709C136.77 68.9043 136.639 69.1406 136.639 69.418H135.549C135.549 69.1016 135.66 68.7969 135.883 68.5039C136.109 68.207 136.414 67.9727 136.797 67.8008C137.184 67.6289 137.607 67.543 138.068 67.543C138.799 67.543 139.371 67.7266 139.785 68.0938C140.199 68.457 140.414 68.959 140.43 69.5996V72.5176C140.43 73.0996 140.504 73.5625 140.652 73.9062V74H139.516ZM137.717 73.1738C138.057 73.1738 138.379 73.0859 138.684 72.9102C138.988 72.7344 139.209 72.5059 139.346 72.2246V70.9238H138.496C137.168 70.9238 136.504 71.3125 136.504 72.0898C136.504 72.4297 136.617 72.6953 136.844 72.8867C137.07 73.0781 137.361 73.1738 137.717 73.1738ZM145.193 68.6328C145.029 68.6055 144.852 68.5918 144.66 68.5918C143.949 68.5918 143.467 68.8945 143.213 69.5V74H142.129V67.6602H143.184L143.201 68.3926C143.557 67.8262 144.061 67.543 144.713 67.543C144.924 67.543 145.084 67.5703 145.193 67.625V68.6328ZM145.814 70.7773C145.814 69.8047 146.045 69.0234 146.506 68.4336C146.967 67.8398 147.57 67.543 148.316 67.543C149.059 67.543 149.646 67.7969 150.08 68.3047V65H151.164V74H150.168L150.115 73.3203C149.682 73.8516 149.078 74.1172 148.305 74.1172C147.57 74.1172 146.971 73.8164 146.506 73.2148C146.045 72.6133 145.814 71.8281 145.814 70.8594V70.7773ZM146.898 70.9004C146.898 71.6191 147.047 72.1816 147.344 72.5879C147.641 72.9941 148.051 73.1973 148.574 73.1973C149.262 73.1973 149.764 72.8887 150.08 72.2715V69.3594C149.756 68.7617 149.258 68.4629 148.586 68.4629C148.055 68.4629 147.641 68.668 147.344 69.0781C147.047 69.4883 146.898 70.0957 146.898 70.9004ZM157.123 70.6602V74H155.998V65.4688H159.145C160.078 65.4688 160.809 65.707 161.336 66.1836C161.867 66.6602 162.133 67.291 162.133 68.0762C162.133 68.9043 161.873 69.543 161.354 69.9922C160.838 70.4375 160.098 70.6602 159.133 70.6602H157.123ZM157.123 69.7402H159.145C159.746 69.7402 160.207 69.5996 160.527 69.3184C160.848 69.0332 161.008 68.623 161.008 68.0879C161.008 67.5801 160.848 67.1738 160.527 66.8691C160.207 66.5645 159.768 66.4062 159.209 66.3945H157.123V69.7402ZM167.242 74C167.18 73.875 167.129 73.6523 167.09 73.332C166.586 73.8555 165.984 74.1172 165.285 74.1172C164.66 74.1172 164.146 73.9414 163.744 73.5898C163.346 73.2344 163.146 72.7852 163.146 72.2422C163.146 71.582 163.396 71.0703 163.896 70.707C164.4 70.3398 165.107 70.1562 166.018 70.1562H167.072V69.6582C167.072 69.2793 166.959 68.9785 166.732 68.7559C166.506 68.5293 166.172 68.416 165.73 68.416C165.344 68.416 165.02 68.5137 164.758 68.709C164.496 68.9043 164.365 69.1406 164.365 69.418H163.275C163.275 69.1016 163.387 68.7969 163.609 68.5039C163.836 68.207 164.141 67.9727 164.523 67.8008C164.91 67.6289 165.334 67.543 165.795 67.543C166.525 67.543 167.098 67.7266 167.512 68.0938C167.926 68.457 168.141 68.959 168.156 69.5996V72.5176C168.156 73.0996 168.23 73.5625 168.379 73.9062V74H167.242ZM165.443 73.1738C165.783 73.1738 166.105 73.0859 166.41 72.9102C166.715 72.7344 166.936 72.5059 167.072 72.2246V70.9238H166.223C164.895 70.9238 164.23 71.3125 164.23 72.0898C164.23 72.4297 164.344 72.6953 164.57 72.8867C164.797 73.0781 165.088 73.1738 165.443 73.1738ZM169.598 70.7773C169.598 69.7891 169.826 69.0039 170.283 68.4219C170.74 67.8359 171.346 67.543 172.1 67.543C172.873 67.543 173.477 67.8164 173.91 68.3633L173.963 67.6602H174.953V73.8477C174.953 74.668 174.709 75.3145 174.221 75.7871C173.736 76.2598 173.084 76.4961 172.264 76.4961C171.807 76.4961 171.359 76.3984 170.922 76.2031C170.484 76.0078 170.15 75.7402 169.92 75.4004L170.482 74.75C170.947 75.3242 171.516 75.6113 172.188 75.6113C172.715 75.6113 173.125 75.4629 173.418 75.166C173.715 74.8691 173.863 74.4512 173.863 73.9121V73.3672C173.43 73.8672 172.838 74.1172 172.088 74.1172C171.346 74.1172 170.744 73.8184 170.283 73.2207C169.826 72.623 169.598 71.8086 169.598 70.7773ZM170.688 70.9004C170.688 71.6152 170.834 72.1777 171.127 72.5879C171.42 72.9941 171.83 73.1973 172.357 73.1973C173.041 73.1973 173.543 72.8867 173.863 72.2656V69.3711C173.531 68.7656 173.033 68.4629 172.369 68.4629C171.842 68.4629 171.43 68.668 171.133 69.0781C170.836 69.4883 170.688 70.0957 170.688 70.9004ZM179.225 74.1172C178.365 74.1172 177.666 73.8359 177.127 73.2734C176.588 72.707 176.318 71.9512 176.318 71.0059V70.8066C176.318 70.1777 176.438 69.6172 176.676 69.125C176.918 68.6289 177.254 68.2422 177.684 67.9648C178.117 67.6836 178.586 67.543 179.09 67.543C179.914 67.543 180.555 67.8145 181.012 68.3574C181.469 68.9004 181.697 69.6777 181.697 70.6895V71.1406H177.402C177.418 71.7656 177.6 72.2715 177.947 72.6582C178.299 73.041 178.744 73.2324 179.283 73.2324C179.666 73.2324 179.99 73.1543 180.256 72.998C180.521 72.8418 180.754 72.6348 180.953 72.377L181.615 72.8926C181.084 73.709 180.287 74.1172 179.225 74.1172ZM179.09 68.4336C178.652 68.4336 178.285 68.5938 177.988 68.9141C177.691 69.2305 177.508 69.6758 177.438 70.25H180.613V70.168C180.582 69.6172 180.434 69.1914 180.168 68.8906C179.902 68.5859 179.543 68.4336 179.09 68.4336Z" fill="black" />
    <path d="M236.197 105H235.072V96.4688H236.197V105ZM239.115 98.6602L239.15 99.457C239.635 98.8477 240.268 98.543 241.049 98.543C242.389 98.543 243.064 99.2988 243.076 100.811V105H241.992V100.805C241.988 100.348 241.883 100.01 241.676 99.791C241.473 99.5723 241.154 99.4629 240.721 99.4629C240.369 99.4629 240.061 99.5566 239.795 99.7441C239.529 99.9316 239.322 100.178 239.174 100.482V105H238.09V98.6602H239.115ZM245.244 105V99.498H244.242V98.6602H245.244V98.0098C245.244 97.3301 245.426 96.8047 245.789 96.4336C246.152 96.0625 246.666 95.877 247.33 95.877C247.58 95.877 247.828 95.9102 248.074 95.9766L248.016 96.8555C247.832 96.8203 247.637 96.8027 247.43 96.8027C247.078 96.8027 246.807 96.9062 246.615 97.1133C246.424 97.3164 246.328 97.6094 246.328 97.9922V98.6602H247.682V99.498H246.328V105H245.244ZM248.596 101.771C248.596 101.15 248.717 100.592 248.959 100.096C249.205 99.5996 249.545 99.2168 249.979 98.9473C250.416 98.6777 250.914 98.543 251.473 98.543C252.336 98.543 253.033 98.8418 253.564 99.4395C254.1 100.037 254.367 100.832 254.367 101.824V101.9C254.367 102.518 254.248 103.072 254.01 103.564C253.775 104.053 253.438 104.434 252.996 104.707C252.559 104.98 252.055 105.117 251.484 105.117C250.625 105.117 249.928 104.818 249.393 104.221C248.861 103.623 248.596 102.832 248.596 101.848V101.771ZM249.686 101.9C249.686 102.604 249.848 103.168 250.172 103.594C250.5 104.02 250.938 104.232 251.484 104.232C252.035 104.232 252.473 104.018 252.797 103.588C253.121 103.154 253.283 102.549 253.283 101.771C253.283 101.076 253.117 100.514 252.785 100.084C252.457 99.6504 252.02 99.4336 251.473 99.4336C250.938 99.4336 250.506 99.6465 250.178 100.072C249.85 100.498 249.686 101.107 249.686 101.9ZM259.998 101.66V105H258.873V96.4688H262.02C262.953 96.4688 263.684 96.707 264.211 97.1836C264.742 97.6602 265.008 98.291 265.008 99.0762C265.008 99.9043 264.748 100.543 264.229 100.992C263.713 101.438 262.973 101.66 262.008 101.66H259.998ZM259.998 100.74H262.02C262.621 100.74 263.082 100.6 263.402 100.318C263.723 100.033 263.883 99.623 263.883 99.0879C263.883 98.5801 263.723 98.1738 263.402 97.8691C263.082 97.5645 262.643 97.4062 262.084 97.3945H259.998V100.74ZM270.117 105C270.055 104.875 270.004 104.652 269.965 104.332C269.461 104.855 268.859 105.117 268.16 105.117C267.535 105.117 267.021 104.941 266.619 104.59C266.221 104.234 266.021 103.785 266.021 103.242C266.021 102.582 266.271 102.07 266.771 101.707C267.275 101.34 267.982 101.156 268.893 101.156H269.947V100.658C269.947 100.279 269.834 99.9785 269.607 99.7559C269.381 99.5293 269.047 99.416 268.605 99.416C268.219 99.416 267.895 99.5137 267.633 99.709C267.371 99.9043 267.24 100.141 267.24 100.418H266.15C266.15 100.102 266.262 99.7969 266.484 99.5039C266.711 99.207 267.016 98.9727 267.398 98.8008C267.785 98.6289 268.209 98.543 268.67 98.543C269.4 98.543 269.973 98.7266 270.387 99.0938C270.801 99.457 271.016 99.959 271.031 100.6V103.518C271.031 104.1 271.105 104.562 271.254 104.906V105H270.117ZM268.318 104.174C268.658 104.174 268.98 104.086 269.285 103.91C269.59 103.734 269.811 103.506 269.947 103.225V101.924H269.098C267.77 101.924 267.105 102.312 267.105 103.09C267.105 103.43 267.219 103.695 267.445 103.887C267.672 104.078 267.963 104.174 268.318 104.174ZM272.473 101.777C272.473 100.789 272.701 100.004 273.158 99.4219C273.615 98.8359 274.221 98.543 274.975 98.543C275.748 98.543 276.352 98.8164 276.785 99.3633L276.838 98.6602H277.828V104.848C277.828 105.668 277.584 106.314 277.096 106.787C276.611 107.26 275.959 107.496 275.139 107.496C274.682 107.496 274.234 107.398 273.797 107.203C273.359 107.008 273.025 106.74 272.795 106.4L273.357 105.75C273.822 106.324 274.391 106.611 275.062 106.611C275.59 106.611 276 106.463 276.293 106.166C276.59 105.869 276.738 105.451 276.738 104.912V104.367C276.305 104.867 275.713 105.117 274.963 105.117C274.221 105.117 273.619 104.818 273.158 104.221C272.701 103.623 272.473 102.809 272.473 101.777ZM273.562 101.9C273.562 102.615 273.709 103.178 274.002 103.588C274.295 103.994 274.705 104.197 275.232 104.197C275.916 104.197 276.418 103.887 276.738 103.266V100.371C276.406 99.7656 275.908 99.4629 275.244 99.4629C274.717 99.4629 274.305 99.668 274.008 100.078C273.711 100.488 273.562 101.096 273.562 101.9ZM282.1 105.117C281.24 105.117 280.541 104.836 280.002 104.273C279.463 103.707 279.193 102.951 279.193 102.006V101.807C279.193 101.178 279.312 100.617 279.551 100.125C279.793 99.6289 280.129 99.2422 280.559 98.9648C280.992 98.6836 281.461 98.543 281.965 98.543C282.789 98.543 283.43 98.8145 283.887 99.3574C284.344 99.9004 284.572 100.678 284.572 101.689V102.141H280.277C280.293 102.766 280.475 103.271 280.822 103.658C281.174 104.041 281.619 104.232 282.158 104.232C282.541 104.232 282.865 104.154 283.131 103.998C283.396 103.842 283.629 103.635 283.828 103.377L284.49 103.893C283.959 104.709 283.162 105.117 282.1 105.117ZM281.965 99.4336C281.527 99.4336 281.16 99.5938 280.863 99.9141C280.566 100.23 280.383 100.676 280.312 101.25H283.488V101.168C283.457 100.617 283.309 100.191 283.043 99.8906C282.777 99.5859 282.418 99.4336 281.965 99.4336Z" fill="black" />
    <path d="M253.553 121.01C253.553 121.846 253.412 122.576 253.131 123.201C252.85 123.822 252.451 124.297 251.936 124.625C251.42 124.953 250.818 125.117 250.131 125.117C249.459 125.117 248.863 124.953 248.344 124.625C247.824 124.293 247.42 123.822 247.131 123.213C246.846 122.6 246.699 121.891 246.691 121.086V120.471C246.691 119.65 246.834 118.926 247.119 118.297C247.404 117.668 247.807 117.188 248.326 116.855C248.85 116.52 249.447 116.352 250.119 116.352C250.803 116.352 251.404 116.518 251.924 116.85C252.447 117.178 252.85 117.656 253.131 118.285C253.412 118.91 253.553 119.639 253.553 120.471V121.01ZM252.434 120.459C252.434 119.447 252.23 118.672 251.824 118.133C251.418 117.59 250.85 117.318 250.119 117.318C249.408 117.318 248.848 117.59 248.438 118.133C248.031 118.672 247.822 119.422 247.811 120.383V121.01C247.811 121.99 248.016 122.762 248.426 123.324C248.84 123.883 249.408 124.162 250.131 124.162C250.857 124.162 251.42 123.898 251.818 123.371C252.217 122.84 252.422 122.08 252.434 121.092V120.459ZM258.135 119.633C257.971 119.605 257.793 119.592 257.602 119.592C256.891 119.592 256.408 119.895 256.154 120.5V125H255.07V118.66H256.125L256.143 119.393C256.498 118.826 257.002 118.543 257.654 118.543C257.865 118.543 258.025 118.57 258.135 118.625V119.633ZM258.756 121.777C258.756 120.805 258.986 120.023 259.447 119.434C259.908 118.84 260.512 118.543 261.258 118.543C262 118.543 262.588 118.797 263.021 119.305V116H264.105V125H263.109L263.057 124.32C262.623 124.852 262.02 125.117 261.246 125.117C260.512 125.117 259.912 124.816 259.447 124.215C258.986 123.613 258.756 122.828 258.756 121.859V121.777ZM259.84 121.9C259.84 122.619 259.988 123.182 260.285 123.588C260.582 123.994 260.992 124.197 261.516 124.197C262.203 124.197 262.705 123.889 263.021 123.271V120.359C262.697 119.762 262.199 119.463 261.527 119.463C260.996 119.463 260.582 119.668 260.285 120.078C259.988 120.488 259.84 121.096 259.84 121.9ZM268.424 125.117C267.564 125.117 266.865 124.836 266.326 124.273C265.787 123.707 265.518 122.951 265.518 122.006V121.807C265.518 121.178 265.637 120.617 265.875 120.125C266.117 119.629 266.453 119.242 266.883 118.965C267.316 118.684 267.785 118.543 268.289 118.543C269.113 118.543 269.754 118.814 270.211 119.357C270.668 119.9 270.896 120.678 270.896 121.689V122.141H266.602C266.617 122.766 266.799 123.271 267.146 123.658C267.498 124.041 267.943 124.232 268.482 124.232C268.865 124.232 269.189 124.154 269.455 123.998C269.721 123.842 269.953 123.635 270.152 123.377L270.814 123.893C270.283 124.709 269.486 125.117 268.424 125.117ZM268.289 119.434C267.852 119.434 267.484 119.594 267.188 119.914C266.891 120.23 266.707 120.676 266.637 121.25H269.812V121.168C269.781 120.617 269.633 120.191 269.367 119.891C269.102 119.586 268.742 119.434 268.289 119.434ZM275.221 119.633C275.057 119.605 274.879 119.592 274.688 119.592C273.977 119.592 273.494 119.895 273.24 120.5V125H272.156V118.66H273.211L273.229 119.393C273.584 118.826 274.088 118.543 274.74 118.543C274.951 118.543 275.111 118.57 275.221 118.625V119.633ZM279.914 123.318C279.914 123.025 279.803 122.799 279.58 122.639C279.361 122.475 278.977 122.334 278.426 122.217C277.879 122.1 277.443 121.959 277.119 121.795C276.799 121.631 276.561 121.436 276.404 121.209C276.252 120.982 276.176 120.713 276.176 120.4C276.176 119.881 276.395 119.441 276.832 119.082C277.273 118.723 277.836 118.543 278.52 118.543C279.238 118.543 279.82 118.729 280.266 119.1C280.715 119.471 280.939 119.945 280.939 120.523H279.85C279.85 120.227 279.723 119.971 279.469 119.756C279.219 119.541 278.902 119.434 278.52 119.434C278.125 119.434 277.816 119.52 277.594 119.691C277.371 119.863 277.26 120.088 277.26 120.365C277.26 120.627 277.363 120.824 277.57 120.957C277.777 121.09 278.15 121.217 278.689 121.338C279.232 121.459 279.672 121.604 280.008 121.771C280.344 121.939 280.592 122.143 280.752 122.381C280.916 122.615 280.998 122.902 280.998 123.242C280.998 123.809 280.771 124.264 280.318 124.607C279.865 124.947 279.277 125.117 278.555 125.117C278.047 125.117 277.598 125.027 277.207 124.848C276.816 124.668 276.51 124.418 276.287 124.098C276.068 123.773 275.959 123.424 275.959 123.049H277.043C277.062 123.412 277.207 123.701 277.477 123.916C277.75 124.127 278.109 124.232 278.555 124.232C278.965 124.232 279.293 124.15 279.539 123.986C279.789 123.818 279.914 123.596 279.914 123.318ZM286.682 121.66V125H285.557V116.469H288.703C289.637 116.469 290.367 116.707 290.895 117.184C291.426 117.66 291.691 118.291 291.691 119.076C291.691 119.904 291.432 120.543 290.912 120.992C290.396 121.438 289.656 121.66 288.691 121.66H286.682ZM286.682 120.74H288.703C289.305 120.74 289.766 120.6 290.086 120.318C290.406 120.033 290.566 119.623 290.566 119.088C290.566 118.58 290.406 118.174 290.086 117.869C289.766 117.564 289.326 117.406 288.768 117.395H286.682V120.74ZM296.801 125C296.738 124.875 296.688 124.652 296.648 124.332C296.145 124.855 295.543 125.117 294.844 125.117C294.219 125.117 293.705 124.941 293.303 124.59C292.904 124.234 292.705 123.785 292.705 123.242C292.705 122.582 292.955 122.07 293.455 121.707C293.959 121.34 294.666 121.156 295.576 121.156H296.631V120.658C296.631 120.279 296.518 119.979 296.291 119.756C296.064 119.529 295.73 119.416 295.289 119.416C294.902 119.416 294.578 119.514 294.316 119.709C294.055 119.904 293.924 120.141 293.924 120.418H292.834C292.834 120.102 292.945 119.797 293.168 119.504C293.395 119.207 293.699 118.973 294.082 118.801C294.469 118.629 294.893 118.543 295.354 118.543C296.084 118.543 296.656 118.727 297.07 119.094C297.484 119.457 297.699 119.959 297.715 120.6V123.518C297.715 124.1 297.789 124.562 297.938 124.906V125H296.801ZM295.002 124.174C295.342 124.174 295.664 124.086 295.969 123.91C296.273 123.734 296.494 123.506 296.631 123.225V121.924H295.781C294.453 121.924 293.789 122.312 293.789 123.09C293.789 123.43 293.902 123.695 294.129 123.887C294.355 124.078 294.646 124.174 295.002 124.174ZM299.156 121.777C299.156 120.789 299.385 120.004 299.842 119.422C300.299 118.836 300.904 118.543 301.658 118.543C302.432 118.543 303.035 118.816 303.469 119.363L303.521 118.66H304.512V124.848C304.512 125.668 304.268 126.314 303.779 126.787C303.295 127.26 302.643 127.496 301.822 127.496C301.365 127.496 300.918 127.398 300.48 127.203C300.043 127.008 299.709 126.74 299.479 126.4L300.041 125.75C300.506 126.324 301.074 126.611 301.746 126.611C302.273 126.611 302.684 126.463 302.977 126.166C303.273 125.869 303.422 125.451 303.422 124.912V124.367C302.988 124.867 302.396 125.117 301.646 125.117C300.904 125.117 300.303 124.818 299.842 124.221C299.385 123.623 299.156 122.809 299.156 121.777ZM300.246 121.9C300.246 122.615 300.393 123.178 300.686 123.588C300.979 123.994 301.389 124.197 301.916 124.197C302.6 124.197 303.102 123.887 303.422 123.266V120.371C303.09 119.766 302.592 119.463 301.928 119.463C301.4 119.463 300.988 119.668 300.691 120.078C300.395 120.488 300.246 121.096 300.246 121.9ZM308.783 125.117C307.924 125.117 307.225 124.836 306.686 124.273C306.146 123.707 305.877 122.951 305.877 122.006V121.807C305.877 121.178 305.996 120.617 306.234 120.125C306.477 119.629 306.812 119.242 307.242 118.965C307.676 118.684 308.145 118.543 308.648 118.543C309.473 118.543 310.113 118.814 310.57 119.357C311.027 119.9 311.256 120.678 311.256 121.689V122.141H306.961C306.977 122.766 307.158 123.271 307.506 123.658C307.857 124.041 308.303 124.232 308.842 124.232C309.225 124.232 309.549 124.154 309.814 123.998C310.08 123.842 310.312 123.635 310.512 123.377L311.174 123.893C310.643 124.709 309.846 125.117 308.783 125.117ZM308.648 119.434C308.211 119.434 307.844 119.594 307.547 119.914C307.25 120.23 307.066 120.676 306.996 121.25H310.172V121.168C310.141 120.617 309.992 120.191 309.727 119.891C309.461 119.586 309.102 119.434 308.648 119.434Z" fill="black" />
    <path d="M262.197 143H261.072V134.469H262.197V143ZM265.561 135.125V136.66H266.744V137.498H265.561V141.43C265.561 141.684 265.613 141.875 265.719 142.004C265.824 142.129 266.004 142.191 266.258 142.191C266.383 142.191 266.555 142.168 266.773 142.121V143C266.488 143.078 266.211 143.117 265.941 143.117C265.457 143.117 265.092 142.971 264.846 142.678C264.6 142.385 264.477 141.969 264.477 141.43V137.498H263.322V136.66H264.477V135.125H265.561ZM270.646 143.117C269.787 143.117 269.088 142.836 268.549 142.273C268.01 141.707 267.74 140.951 267.74 140.006V139.807C267.74 139.178 267.859 138.617 268.098 138.125C268.34 137.629 268.676 137.242 269.105 136.965C269.539 136.684 270.008 136.543 270.512 136.543C271.336 136.543 271.977 136.814 272.434 137.357C272.891 137.9 273.119 138.678 273.119 139.689V140.141H268.824C268.84 140.766 269.021 141.271 269.369 141.658C269.721 142.041 270.166 142.232 270.705 142.232C271.088 142.232 271.412 142.154 271.678 141.998C271.943 141.842 272.176 141.635 272.375 141.377L273.037 141.893C272.506 142.709 271.709 143.117 270.646 143.117ZM270.512 137.434C270.074 137.434 269.707 137.594 269.41 137.914C269.113 138.23 268.93 138.676 268.859 139.25H272.035V139.168C272.004 138.617 271.855 138.191 271.59 137.891C271.324 137.586 270.965 137.434 270.512 137.434ZM275.398 136.66L275.428 137.363C275.893 136.816 276.52 136.543 277.309 136.543C278.195 136.543 278.799 136.883 279.119 137.562C279.33 137.258 279.604 137.012 279.939 136.824C280.279 136.637 280.68 136.543 281.141 136.543C282.531 136.543 283.238 137.279 283.262 138.752V143H282.178V138.816C282.178 138.363 282.074 138.025 281.867 137.803C281.66 137.576 281.312 137.463 280.824 137.463C280.422 137.463 280.088 137.584 279.822 137.826C279.557 138.064 279.402 138.387 279.359 138.793V143H278.27V138.846C278.27 137.924 277.818 137.463 276.916 137.463C276.205 137.463 275.719 137.766 275.457 138.371V143H274.373V136.66H275.398ZM288.594 141.318C288.594 141.025 288.482 140.799 288.26 140.639C288.041 140.475 287.656 140.334 287.105 140.217C286.559 140.1 286.123 139.959 285.799 139.795C285.479 139.631 285.24 139.436 285.084 139.209C284.932 138.982 284.855 138.713 284.855 138.4C284.855 137.881 285.074 137.441 285.512 137.082C285.953 136.723 286.516 136.543 287.199 136.543C287.918 136.543 288.5 136.729 288.945 137.1C289.395 137.471 289.619 137.945 289.619 138.523H288.529C288.529 138.227 288.402 137.971 288.148 137.756C287.898 137.541 287.582 137.434 287.199 137.434C286.805 137.434 286.496 137.52 286.273 137.691C286.051 137.863 285.939 138.088 285.939 138.365C285.939 138.627 286.043 138.824 286.25 138.957C286.457 139.09 286.83 139.217 287.369 139.338C287.912 139.459 288.352 139.604 288.688 139.771C289.023 139.939 289.271 140.143 289.432 140.381C289.596 140.615 289.678 140.902 289.678 141.242C289.678 141.809 289.451 142.264 288.998 142.607C288.545 142.947 287.957 143.117 287.234 143.117C286.727 143.117 286.277 143.027 285.887 142.848C285.496 142.668 285.189 142.418 284.967 142.098C284.748 141.773 284.639 141.424 284.639 141.049H285.723C285.742 141.412 285.887 141.701 286.156 141.916C286.43 142.127 286.789 142.232 287.234 142.232C287.645 142.232 287.973 142.15 288.219 141.986C288.469 141.818 288.594 141.596 288.594 141.318ZM295.361 139.66V143H294.236V134.469H297.383C298.316 134.469 299.047 134.707 299.574 135.184C300.105 135.66 300.371 136.291 300.371 137.076C300.371 137.904 300.111 138.543 299.592 138.992C299.076 139.438 298.336 139.66 297.371 139.66H295.361ZM295.361 138.74H297.383C297.984 138.74 298.445 138.6 298.766 138.318C299.086 138.033 299.246 137.623 299.246 137.088C299.246 136.58 299.086 136.174 298.766 135.869C298.445 135.564 298.006 135.406 297.447 135.395H295.361V138.74ZM305.48 143C305.418 142.875 305.367 142.652 305.328 142.332C304.824 142.855 304.223 143.117 303.523 143.117C302.898 143.117 302.385 142.941 301.982 142.59C301.584 142.234 301.385 141.785 301.385 141.242C301.385 140.582 301.635 140.07 302.135 139.707C302.639 139.34 303.346 139.156 304.256 139.156H305.311V138.658C305.311 138.279 305.197 137.979 304.971 137.756C304.744 137.529 304.41 137.416 303.969 137.416C303.582 137.416 303.258 137.514 302.996 137.709C302.734 137.904 302.604 138.141 302.604 138.418H301.514C301.514 138.102 301.625 137.797 301.848 137.504C302.074 137.207 302.379 136.973 302.762 136.801C303.148 136.629 303.572 136.543 304.033 136.543C304.764 136.543 305.336 136.727 305.75 137.094C306.164 137.457 306.379 137.959 306.395 138.6V141.518C306.395 142.1 306.469 142.562 306.617 142.906V143H305.48ZM303.682 142.174C304.021 142.174 304.344 142.086 304.648 141.91C304.953 141.734 305.174 141.506 305.311 141.225V139.924H304.461C303.133 139.924 302.469 140.312 302.469 141.09C302.469 141.43 302.582 141.695 302.809 141.887C303.035 142.078 303.326 142.174 303.682 142.174ZM307.836 139.777C307.836 138.789 308.064 138.004 308.521 137.422C308.979 136.836 309.584 136.543 310.338 136.543C311.111 136.543 311.715 136.816 312.148 137.363L312.201 136.66H313.191V142.848C313.191 143.668 312.947 144.314 312.459 144.787C311.975 145.26 311.322 145.496 310.502 145.496C310.045 145.496 309.598 145.398 309.16 145.203C308.723 145.008 308.389 144.74 308.158 144.4L308.721 143.75C309.186 144.324 309.754 144.611 310.426 144.611C310.953 144.611 311.363 144.463 311.656 144.166C311.953 143.869 312.102 143.451 312.102 142.912V142.367C311.668 142.867 311.076 143.117 310.326 143.117C309.584 143.117 308.982 142.818 308.521 142.221C308.064 141.623 307.836 140.809 307.836 139.777ZM308.926 139.9C308.926 140.615 309.072 141.178 309.365 141.588C309.658 141.994 310.068 142.197 310.596 142.197C311.279 142.197 311.781 141.887 312.102 141.266V138.371C311.77 137.766 311.271 137.463 310.607 137.463C310.08 137.463 309.668 137.668 309.371 138.078C309.074 138.488 308.926 139.096 308.926 139.9ZM317.463 143.117C316.604 143.117 315.904 142.836 315.365 142.273C314.826 141.707 314.557 140.951 314.557 140.006V139.807C314.557 139.178 314.676 138.617 314.914 138.125C315.156 137.629 315.492 137.242 315.922 136.965C316.355 136.684 316.824 136.543 317.328 136.543C318.152 136.543 318.793 136.814 319.25 137.357C319.707 137.9 319.936 138.678 319.936 139.689V140.141H315.641C315.656 140.766 315.838 141.271 316.186 141.658C316.537 142.041 316.982 142.232 317.521 142.232C317.904 142.232 318.229 142.154 318.494 141.998C318.76 141.842 318.992 141.635 319.191 141.377L319.854 141.893C319.322 142.709 318.525 143.117 317.463 143.117ZM317.328 137.434C316.891 137.434 316.523 137.594 316.227 137.914C315.93 138.23 315.746 138.676 315.676 139.25H318.852V139.168C318.82 138.617 318.672 138.191 318.406 137.891C318.141 137.586 317.781 137.434 317.328 137.434Z" fill="black" />
</svg>
